<?xml version="1.0" encoding="UTF-8"?>
<svg width="553px" height="275px" viewBox="0 0 553 275" version="1.1" xmlns="http://www.w3.org/2000/svg" xmlns:xlink="http://www.w3.org/1999/xlink">
    <!-- Generator: Sketch 50.2 (55047) - http://www.bohemiancoding.com/sketch -->
    <title>RTO logo_notag</title>
    <desc>Created with Sketch.</desc>
    <defs>
        <polygon id="path-1" points="0.996 0.072 87.518 0.072 87.518 45.94 0.996 45.94"></polygon>
        <polygon id="path-3" points="0.452 0.072 72.075 0.072 72.075 45.94 0.452 45.94"></polygon>
    </defs>
    <g id="RTO-logo_notag" stroke="none" stroke-width="1" fill="none" fill-rule="evenodd">
        <polygon id="Fill-1" fill="#FFFFFF" points="255.894 204.424 335.226 151.024 335.226 40.106 255.894 0.44"></polygon>
        <polyline id="Fill-2" fill="#E87F34" points="192.01 42.794 192.01 158.036 249.307 178.971 249.307 26.266 192.01 42.794"></polyline>
        <path d="M16.936,235.54 C16.426,235.344 15.887,235.177 15.319,235.039 C14.75,234.904 14.232,234.834 13.762,234.834 L5.469,234.834 L5.469,249.417 L15.172,249.417 C17.055,249.417 18.515,248.762 19.554,247.448 C20.592,246.135 21.112,244.538 21.112,242.655 C21.112,241.089 20.759,239.655 20.054,238.362 C19.348,237.069 18.309,236.127 16.936,235.54 Z M28.889,273.811 L21.817,273.823 L5.469,251.595 L5.469,273.823 L0,273.823 L0,230.307 L16.113,230.483 C19.209,230.483 21.748,231.658 23.729,234.01 C25.708,236.364 26.698,239.087 26.698,242.186 C26.698,243.832 26.415,245.359 25.847,246.771 C25.279,248.182 24.348,249.478 23.056,250.652 C21.607,251.829 20.021,252.673 18.298,253.183 L12.542,253.171 L28.889,273.811 Z" id="Fill-3" fill="#FFFFFF"></path>
        <g id="Group-7" transform="translate(39.000000, 229.000000)">
            <mask id="mask-2" fill="white">
                <use xlink:href="#path-1"></use>
            </mask>
            <g id="Clip-5"></g>
            <polyline id="Fill-4" fill="#FFFFFF" mask="url(#mask-2)" points="31.458 5.892 18.933 5.892 18.933 44.823 13.521 44.823 13.521 5.892 0.996 5.892 0.996 1.307 31.458 1.307 31.458 5.892"></polyline>
            <path d="M82.109,22.624 C82.109,17.635 80.303,13.416 76.697,9.959 C73.089,6.503 68.758,4.775 63.702,4.775 C58.723,4.775 54.508,6.583 51.057,10.194 C47.608,13.807 45.882,18.148 45.882,23.211 C45.882,28.2 47.675,32.412 51.264,35.847 C54.851,39.284 59.192,41 64.289,41 C69.268,41 73.483,39.194 76.932,35.583 C80.383,31.97 82.109,27.649 82.109,22.624 Z M87.518,22.74 C87.518,29.178 85.253,34.665 80.726,39.199 C76.197,43.733 70.718,46 64.289,46 C57.781,46 52.185,43.81 47.499,39.433 C42.815,35.056 40.473,29.688 40.473,23.33 C40.473,16.891 42.738,11.407 47.265,6.873 C51.794,2.339 57.271,0.072 63.702,0.072 C70.208,0.072 75.806,2.259 80.49,6.636 C85.176,11.013 87.518,16.381 87.518,22.74 Z" id="Fill-6" fill="#FFFFFF" mask="url(#mask-2)"></path>
        </g>
        <polyline id="Fill-8" fill="#FFFFFF" points="206.127 274.763 205.069 274.763 173.313 239.832 173.313 273.823 168.431 273.823 168.431 229.248 169.656 229.256 201.127 264.223 201.127 230.307 206.127 230.307 206.127 274.763"></polyline>
        <path d="M250.59,256.356 L243.284,237.57 L236.22,256.356 L250.59,256.356 Z M263.934,273.823 L257.829,273.818 L252.261,260.298 L234.919,260.298 L229.339,273.816 L223.707,273.823 L242.823,229.072 L244.232,229.072 L263.934,273.823 Z" id="Fill-9" fill="#FFFFFF"></path>
        <polyline id="Fill-10" fill="#FFFFFF" points="306.834 234.892 294.31 234.892 294.31 273.823 288.899 273.823 288.899 234.892 276.374 234.892 276.374 230.307 306.834 230.307 306.834 234.892"></polyline>
        <g id="Group-14" transform="translate(326.000000, 229.000000)">
            <mask id="mask-4" fill="white">
                <use xlink:href="#path-3"></use>
            </mask>
            <g id="Clip-12"></g>
            <polygon id="Fill-11" fill="#FFFFFF" mask="url(#mask-4)" points="0.452 44.823 5.569 44.823 5.569 1.307 0.452 1.307"></polygon>
            <path d="M66.664,22.624 C66.664,17.635 64.861,13.416 61.255,9.959 C57.647,6.503 53.316,4.775 48.257,4.775 C43.278,4.775 39.063,6.583 35.614,10.194 C32.165,13.807 30.44,18.148 30.44,23.211 C30.44,28.2 32.233,32.412 35.82,35.847 C39.409,39.284 43.749,41 48.847,41 C53.826,41 58.041,39.194 61.489,35.583 C64.938,31.97 66.664,27.649 66.664,22.624 Z M72.075,22.74 C72.075,29.178 69.811,34.665 65.284,39.199 C60.755,43.733 55.276,46 48.847,46 C42.338,46 36.741,43.81 32.057,39.433 C27.373,35.056 25.028,29.688 25.028,23.33 C25.028,16.891 27.293,11.407 31.822,6.873 C36.349,2.339 41.828,0.072 48.257,0.072 C54.766,0.072 60.363,2.259 65.047,6.636 C69.731,11.013 72.075,16.381 72.075,22.74 Z" id="Fill-13" fill="#FFFFFF" mask="url(#mask-4)"></path>
        </g>
        <polyline id="Fill-15" fill="#FFFFFF" points="452.412 274.763 451.353 274.763 419.598 239.832 419.598 273.823 414.716 273.823 414.716 229.248 415.941 229.256 447.411 264.223 447.411 230.307 452.412 230.307 452.412 274.763"></polyline>
        <path d="M497.876,256.356 L490.57,237.57 L483.505,256.356 L497.876,256.356 Z M511.22,273.823 L505.115,273.818 L499.546,260.298 L482.205,260.298 L476.624,273.816 L470.993,273.823 L490.108,229.072 L491.517,229.072 L511.22,273.823 Z" id="Fill-16" fill="#FFFFFF"></path>
        <polyline id="Fill-17" fill="#FFFFFF" points="552.312 273.823 530.847 273.823 530.847 230.307 536.256 230.307 536.256 269.117 552.312 269.117 552.312 273.823"></polyline>
    </g>
</svg>